<svg id="Layer_1" data-name="Layer 1" xmlns="http://www.w3.org/2000/svg" viewBox="0 0 72.48 72.48"><defs><style>.cls-1,.cls-13{fill:none;}.cls-1{stroke:#231f20;}.cls-1,.cls-13,.cls-14{stroke-miterlimit:10;}.cls-14,.cls-2{fill:#091935;}.cls-3{fill:#10203c;}.cls-4{fill:#142441;}.cls-5{fill:#1b2c4b;}.cls-6{fill:#203252;}.cls-7{fill:#25385a;}.cls-8{fill:#2a3e62;}.cls-9{fill:#2d446a;}.cls-10{fill:#285072;}.cls-11{fill:#135c80;}.cls-12{fill:#0a9b9c;}.cls-13{stroke:#394195;}.cls-14{stroke:#394295;}.cls-15{fill:#fff;}.cls-16{fill:#d2d3d4;}.cls-17{fill:#f2f2f2;}.cls-18{fill:#e6e7e7;}</style></defs><title>icon</title><path class="cls-1" d="M55.74,67.31" transform="translate(-3.33 -3.01)"/><circle class="cls-2" cx="36.24" cy="36.24" r="35.74"/><circle class="cls-3" cx="36.24" cy="36.24" r="33.09"/><circle class="cls-4" cx="36.24" cy="36.24" r="29.31"/><circle class="cls-5" cx="36.24" cy="36.24" r="25.31"/><circle class="cls-6" cx="36.24" cy="36.24" r="21.32"/><circle class="cls-7" cx="36.24" cy="36.24" r="17.95"/><circle class="cls-8" cx="36.24" cy="36.24" r="14.38"/><circle class="cls-9" cx="36.24" cy="36.24" r="10.81"/><circle class="cls-10" cx="36.24" cy="36.24" r="7.22"/><circle class="cls-11" cx="36.24" cy="36.24" r="4.28"/><path class="cls-12" d="M62.67,53.53c.09-.68,1-.9,1.44-1.37s.79-1.24,1.42-1.15a6,6,0,0,0-.42-3.33,1.8,1.8,0,0,1-.2-.63,1.57,1.57,0,0,1,.28-.81,16.24,16.24,0,0,1,1.21-1.9c.57-.74,1.27-1.37,1.89-2.08a10.89,10.89,0,0,0,1.62-2.57A1.12,1.12,0,0,0,70,39a.58.58,0,0,0-.46-.47.92.92,0,0,0-.58.2l-.3.19c-.93.6-1.28.62-2.13,0-.44-.34.15-1.26-.33-1.54a1.5,1.5,0,0,0-.38-.1c-.38-.1-.59-.5-.75-.86a27.09,27.09,0,0,1-1.73-5.52l1.47,2a5.88,5.88,0,0,0,.79.95,2,2,0,0,1,.65.74,3.58,3.58,0,0,1,0,.8,2.51,2.51,0,0,0,.86,1.41.71.71,0,0,0,.92.26l3.07-1a2.56,2.56,0,0,0,1-.47,1.32,1.32,0,0,0,.28-.36Q72.27,34,72,32.81c-.69.05-1.29.67-2,.72a1.78,1.78,0,0,1-1.53-.87,5.25,5.25,0,0,1-.63-1.73,6.3,6.3,0,0,0,2.62,1.47,1.66,1.66,0,0,0,1.06,0,.79.79,0,0,0,.33-.27c-.08-.39-.17-.78-.27-1.16a1.23,1.23,0,0,1-.06-.21v-.06A33.14,33.14,0,0,0,57.83,11.65h0c-1.34-.24-2.88-.44-3.94.42-.67.54-1,1.42-1.68,2s-1.31.64-1.83,1.15-.56,1.6.14,1.78,1.23-.53,1.83-.33a10.8,10.8,0,0,1,1,2,.86.86,0,0,0,1-.55,3.1,3.1,0,0,0,.12-1.29,3.56,3.56,0,0,1,.3-1.7,1.66,1.66,0,0,1,1.36-1,6.79,6.79,0,0,0-.35,2.58,4.43,4.43,0,0,1,2,.26q-.47.21-.93.46a1.63,1.63,0,0,1,.56,1.16L55.68,18l.07,1.12-3.11.26a.9.9,0,0,1-.5-.05c-.45-.23-.21-.91.08-1.33a1.63,1.63,0,0,0-1-.25l.06,1.41a5.6,5.6,0,0,1-1.39.27,1.15,1.15,0,0,1-1.48.83l0-.72a2.61,2.61,0,0,1-1.31-2.86.63.63,0,0,0-.86.17,1.07,1.07,0,0,0-.1.94.92.92,0,0,1,.09.49c-.12.48-.85.23-1.35.3a.86.86,0,0,0-.62,1.19,2.76,2.76,0,0,0,1.15-.12,1.23,1.23,0,0,1,1.22-1.14l.05.49-.85.15-.1,1.26a8.05,8.05,0,0,1,3,.5,8.69,8.69,0,0,0-2.44.94,1.17,1.17,0,0,1,1.39.56A2,2,0,0,1,47.73,24c-1.06.6-2.55-1-3.5-.2-.69.56-.26,1.7-.6,2.52a8.52,8.52,0,0,1,1.64.79,2.78,2.78,0,0,0,.69.24,1.49,1.49,0,0,1-.78.72c-.48.18-1.09.14-1.38.56a2,2,0,0,0-.22.61,3.93,3.93,0,0,1-1.63,1.91,9.88,9.88,0,0,0-2.61,2.21.57.57,0,0,0-.13.44,1.16,1.16,0,0,0,.22.33,1.29,1.29,0,0,1-.06,1.18l-1,2.49a4.63,4.63,0,0,1,1.16,1.15,13,13,0,0,0,2.74,2.4c1.36.92,3.12,1.67,4.6,1,.78-.38,1.47-1.16,2.33-1.06a3.38,3.38,0,0,1,.86.28,4.85,4.85,0,0,0,2.29.32,1.89,1.89,0,0,1,0,1.39,3.35,3.35,0,0,0-.29.69c-.19,1,.82,1.06,1.37,1.47a1.85,1.85,0,0,1,.71,1.79,1,1,0,0,0-.5.49.8.8,0,0,0,.17.65,2.43,2.43,0,0,1,.37.59.49.49,0,0,1-.2.61c0,1.08-.86,1.69-.94,2.76-.11,1.49,1.3,2.75,1.28,4.25a14.38,14.38,0,0,0-.13,1.44,4.93,4.93,0,0,0,.33,1.13,5.88,5.88,0,0,1,.22,2.86l.7.08a1.28,1.28,0,0,1,.88-1c.44-.18.93-.24,1.37-.44a22.91,22.91,0,0,0,2-1.52c.6-.35,1.43-.64,1.47-1.33,0-.3-.13-.61,0-.88a1,1,0,0,1,.35-.37l1.57-1.18C63.23,54.67,62.59,54.13,62.67,53.53Zm-3-23.62a15.51,15.51,0,0,1-2.32-.56c.16.4-.24.85-.67.91a1.94,1.94,0,0,1-1.21-.38,2.83,2.83,0,0,0-1.18-.51c-.34,0-.71.07-1-.11-.57-.37-.1-1.3-.38-1.92a16.31,16.31,0,0,0-4,.1,4.82,4.82,0,0,1-1.39.09,2.09,2.09,0,0,1-.7-.23,1.14,1.14,0,0,0,.26-.12c.72-.46.91-1.72,1.76-1.74a1.32,1.32,0,0,0,.48,0c.38-.16.22-.75.44-1.09a1.09,1.09,0,0,1,.77-.37,2.33,2.33,0,0,1,2.06.28c.21.21.34.49.54.7a7.39,7.39,0,0,0,1.23.76c.4.28.68.88.35,1.24a1.27,1.27,0,0,0-.83.55.68.68,0,0,0,.83,0,2,2,0,0,0,.57-.68l.55-.89c-.14-.55-.74-.82-1.24-1.1s-1-.82-.77-1.34a.75.75,0,0,1,.81.31,4.27,4.27,0,0,0,.58.73c.29.22.68.27,1,.47.54.35.67,1.06.87,1.67s.7,1.27,1.33,1.15V25.65c.5.12.67.74,1,1.1.79.77,2.25.23,3.1.93.69.58.59,1.65.44,2.53C61.83,30.14,60.73,30.08,59.65,29.91Z" transform="translate(-3.33 -3.01)"/><path class="cls-12" d="M37.49,6.23A33,33,0,0,0,15,17a6.13,6.13,0,0,0-.1.61.5.5,0,0,1,.74.68c-.17.24-.56.45-.4.69a.86.86,0,0,1,.6.69,4.94,4.94,0,0,0-1.7-.13,1.67,1.67,0,0,0-1.33.94,1.37,1.37,0,0,1-.2.44.88.88,0,0,1-.43.22l-.44.11a32.93,32.93,0,0,0-5.3,18c0,1,0,1.95.13,2.91A6.6,6.6,0,0,1,9,42.37a1,1,0,0,0,.72,0c.2-.11.3-.37.52-.45s.57.17.84.33a1.28,1.28,0,0,0,1.31,0,1.67,1.67,0,0,0,1.4,1.51,4.88,4.88,0,0,0,2.2-.21,4.33,4.33,0,0,1,.09,2.25,4.82,4.82,0,0,0-.18.87c0,.78.52,1.62.15,2.31l1.08.06c.42,1.14,1,2.41,2.08,2.87a2.47,2.47,0,0,1,.64.29.49.49,0,0,1,.16.62c.28,0,.49.23.77.23a1.88,1.88,0,0,1,.84.14,1.78,1.78,0,0,1,.65.73,15.42,15.42,0,0,1,1.47,3.37c.61,2,.86,4.3,2.29,5.86a1,1,0,0,1,.3.46c0,.16,0,.32,0,.48.08.4.6.48,1,.69a1.39,1.39,0,0,1,.63,1.14,1.68,1.68,0,0,0,.07.64c.09.2.38.32.53.17a3,3,0,0,0-.22,1.4.92.92,0,0,1,1.13.81c0,.61.06.7.59,1a6.22,6.22,0,0,0,.58.33,3.13,3.13,0,0,0,1.63.3,1.25,1.25,0,0,1,.56,0,1,1,0,0,0,.26.1c.18,0,.32-.18.32-.36a1,1,0,0,0-.2-.5,10.54,10.54,0,0,0-.95-1.33,1.68,1.68,0,0,1-.46-.81c-.06-.42.18-.94-.13-1.23s-.83-.11-1.06-.42c.32,0,.25-.52.08-.79s-.29-.4,0-.6a.78.78,0,0,0,.26-.71,1.73,1.73,0,0,1-.77-.44c.1-.28.49-.3.79-.27a2.36,2.36,0,0,1-.36-1.11.68.68,0,0,0,.94-.29,1.3,1.3,0,0,0,0-1.07,2.47,2.47,0,0,0-1-1.18l1.81.21a5.57,5.57,0,0,0,.29-2.24c.22.08.38-.23.35-.47s-.15-.48,0-.68.18-.2.19-.32-.16-.28-.26-.42c-.3-.4.09-.95.49-1.26A2.08,2.08,0,0,1,35,53.84a5.77,5.77,0,0,0-.1-1,5.91,5.91,0,0,1,0-1.36,2.67,2.67,0,0,0-.53-1.5l-.12-.16a1.09,1.09,0,0,1,.62-1.26c-.2-.48.18-1,.17-1.53a1.4,1.4,0,0,0-.76-1.13,4.13,4.13,0,0,0-1.36-.41l-3.15-.56-1.22-.22c-.31-.05-.62-.11-.93-.14-.58-.05-1.31-.08-1.55-.62-.12-.27-.09-.64-.34-.8s-.43-.06-.64-.14-.44-.46-.7-.64-.93-.08-1.41-.09c-1.1,0-2-1.11-3.11-.93a4.77,4.77,0,0,0-.58.16,3.44,3.44,0,0,1-2.48-.22A3.92,3.92,0,0,0,16,42.89c-.46-.16-.95.2-1.43.19-.82,0-1.22-1-1.41-1.81l-.68.12L12,39.86c-.12-.4-.47-.89-.83-.69-.09.8-.86,1.63-1.61,1.33a6.93,6.93,0,0,1-.26-2.86c.05-.43,0-.86.35-.65a.36.36,0,0,1,.36-.27,4.54,4.54,0,0,1,.48.06c.24,0,.5.15.71,0l1.23-.69.37.52a1.14,1.14,0,0,1,.86-.16c-.06.4.05,1,.45.93a4.35,4.35,0,0,1,.2-3.16c.34-.54.94-.94,1.07-1.57.08-.36,0-.78.25-1.05s.71-.25,1-.5.25-.9.53-1.27a2.29,2.29,0,0,1,.89-.52c.31-.15.62-.48.51-.81a2,2,0,0,0,1.81-1.28,2.58,2.58,0,0,1-1,.5V26.62a5.53,5.53,0,0,0-1.52,1.21c-.08-.53.39-1,.83-1.27a13.32,13.32,0,0,1,2.47-1.35l-.49,1.71a1.69,1.69,0,0,1,1.37-.63.93.93,0,0,0,.39.06c.38-.09.23-.66,0-1l-.86-1.2.12-.68a2.94,2.94,0,0,0-1.42-.44l.26-1.66a2.48,2.48,0,0,0-1.95,1.37l-.19-1.34a2.27,2.27,0,0,0-1.13-.08.78.78,0,0,0-.61.83c0,.14.11.3,0,.42s-.2.11-.31.15c-.4.15-.44.7-.33,1.11a1.76,1.76,0,0,1,.08,1.24,2.1,2.1,0,0,1-.53.53,2.11,2.11,0,0,0-.68,1.82.84.84,0,0,1-.58-.05,6.82,6.82,0,0,0-.06-1.54H12.41L11.93,25c.43-1.67,2.52-2.45,3-4.1l.6-.23a3.87,3.87,0,0,0,1.57-2.45,2.48,2.48,0,0,1,1.57.43,1.63,1.63,0,0,1-1.77,1.77l0,.56a2.84,2.84,0,0,1,2.85.1,1.09,1.09,0,0,1,.7-1.06,1.27,1.27,0,0,0-.44-.84,4,4,0,0,0,1.86-.55.51.51,0,0,0,.21-.19c.14-.26-.22-.54-.51-.53a2.57,2.57,0,0,1-.88,0l.2-.74c-.28-.4-1,0-1.37-.35-.11-.09-.18-.23-.29-.33-.67-.61-1.78.88-2.52.35a6.5,6.5,0,0,0,2.13-1.29,2.61,2.61,0,0,0-1.57.22,8.67,8.67,0,0,0,3.35-2.28c.14-.18.27-.38.42-.55a4.58,4.58,0,0,1,.51-.47l1.95-1.61a1.29,1.29,0,0,1,1.09-.42,9.19,9.19,0,0,1-3.24,2.61.6.6,0,0,0,.62.18v.48c.77.34,1.61-1.09,2.3-.61v1.82h.92a2.84,2.84,0,0,1-.54,1.44,3.55,3.55,0,0,0,0,3.24,3.93,3.93,0,0,0,3-2.49c.2-.56.32-1.25.85-1.53.29-.16.66-.16.91-.38s.3-.63.52-.9a1.78,1.78,0,0,1,.63-.44,22.69,22.69,0,0,0,3.14-1.93c.42-.31.86-.84.58-1.27l-.66-.14a1.89,1.89,0,0,1,1.71-.7,2.86,2.86,0,0,0-.23-2.14A6.35,6.35,0,0,0,37.49,6.23Z" transform="translate(-3.33 -3.01)"/><path class="cls-12" d="M69.49,53.06c0-.23.12-.44.15-.67.09-.64-.23-1.28-.2-1.92s.26-1,.33-1.46a1.1,1.1,0,0,0-.58-1.25c.06.37,0,.87-.31,1a.54.54,0,0,0-.19.07.33.33,0,0,0-.08.26v1.16a.56.56,0,0,0-.73.47,1.92,1.92,0,0,1-.76.17c-.26,0-.54.19-.57.45s.43.67.29,1c-.06.13-.19.21-.29.32-.28.31-.22.87-.58,1.07-.12.07-.27.09-.35.2a.37.37,0,0,0,.13.46,2.82,2.82,0,0,1,.4.32,1,1,0,0,1,.17.53l.19,1.48c.68.09,1.08-.72,1.65-1.1a2.2,2.2,0,0,1,.3-.16q.55-1,1-2A2.29,2.29,0,0,1,69.49,53.06Z" transform="translate(-3.33 -3.01)"/><path class="cls-12" d="M36.25,12l-.58.6a.85.85,0,0,1-.27.21,1.57,1.57,0,0,1-.51,0,1.87,1.87,0,0,0-1.19.82,1.07,1.07,0,0,0-.29.53,6,6,0,0,0,2.25-.49,1.91,1.91,0,0,1,1-.87,2.41,2.41,0,0,0,.64-.26.45.45,0,0,0,.15-.6C36.85,11.73,36.7,11.52,36.25,12Z" transform="translate(-3.33 -3.01)"/><path class="cls-13" d="M56.78,70.74A32.93,32.93,0,0,1,40.84,75c-20,0-37-14.81-37-35A36.33,36.33,0,0,1,40,3.51c20,0,35.32,15.58,35.32,35.74,0,6.39-3.46,17.06-7.36,22.25" transform="translate(-3.33 -3.01)"/><polyline class="cls-14" points="52.99 67.97 67.22 70.32 64.53 58.08"/><path class="cls-15" d="M63.19,45.58a.61.61,0,0,1-.53-.33.79.79,0,0,1,.19-1c2.72-2,9.25-7.32,11-13a.61.61,0,0,1,.8-.44.76.76,0,0,1,.38.93c-1.86,6.08-8.66,11.61-11.49,13.71A.57.57,0,0,1,63.19,45.58Z" transform="translate(-3.33 -3.01)"/><path class="cls-15" d="M16.85,45.24a.66.66,0,0,1-.36-.11c-3-2-10.35-7.3-12.35-13.11a.7.7,0,0,1,.41-.88.67.67,0,0,1,.86.42C7.27,37,14.29,42,17.22,44a.7.7,0,0,1,.2,1A.67.67,0,0,1,16.85,45.24Z" transform="translate(-3.33 -3.01)"/><path class="cls-15" d="M14.56,59a25,25,0,0,1-5.88-.62c-.51-.13-.7-.43-.42-.67a1.8,1.8,0,0,1,1.43-.2,23.45,23.45,0,0,0,6.75.44c.58,0,1.11.15,1.19.43s-.33.52-.9.56S15.27,59,14.56,59Z" transform="translate(-3.33 -3.01)"/><path class="cls-15" d="M65,58.95a22.19,22.19,0,0,0,5.54-.62c.48-.13.66-.43.4-.67a1.61,1.61,0,0,0-1.35-.2,20.83,20.83,0,0,1-6.36.44c-.54,0-1,.15-1.12.43s.31.52.85.56S64.36,58.95,65,58.95Z" transform="translate(-3.33 -3.01)"/><path class="cls-16" d="M62.33,44.52c-8.51-3-19.39-5.59-22.76-5.57-4.72,0-14.25,2.59-22.77,5.57C18.87,49.27,18,55,16.44,59.1,19.12,62,33,63.46,39.78,63.41s19.39-.89,22.77-4.49C61.07,54.81,60.28,49.23,62.33,44.52Z" transform="translate(-3.33 -3.01)"/><path class="cls-15" d="M62.11,44.66c-8.43-3-19.2-5.61-22.53-5.58-4.67,0-14.11,2.6-22.54,5.58,2,4.76,1.05,10.48-.45,14.6,5.4,6.53,16.51,8.89,23.18,8.84S56.53,66.2,62.51,59C61,54.85,60.09,49.37,62.11,44.66Z" transform="translate(-3.33 -3.01)"/><path class="cls-17" d="M63.6,44.17c-9-3.14-20.48-5.9-24-5.88-5,0-15.05,2.74-24,5.88a17.75,17.75,0,0,1,.18,14.11,6.06,6.06,0,0,0,.75.84c1.52-4.11,2.42-9.84.35-14.6,8.51-3,18.05-5.54,22.77-5.57,3.36,0,14.24,2.59,22.76,5.57-2,4.7-1.26,10.29.23,14.39.3-.31.54-.59.75-.82A17.34,17.34,0,0,1,63.6,44.17Z" transform="translate(-3.33 -3.01)"/><path class="cls-18" d="M23,46.41l.38-.1L24.47,46l1.66-.43c.65-.16,1.37-.34,2.18-.52s1.67-.37,2.6-.56,1.91-.38,2.93-.55,2.09-.34,3.19-.46c.55-.06,1.11-.11,1.69-.13h.88l.42,0,.43,0c1.14.11,2.24.25,3.32.41s2.14.34,3.16.52,2,.37,2.93.56,1.8.37,2.6.56l1.15.27,1,.26c.64.17,1.2.32,1.65.45s.81.24,1,.32l.37.12-.38-.08-.46-.1-.63-.13-1.7-.33-2.21-.39-2.63-.44L46.75,45l-1.55-.23L43.6,44.5c-1.07-.15-2.17-.29-3.24-.38l-.4,0-.41,0h-.78c-.53,0-1.07.06-1.61.12-1.07.11-2.13.24-3.15.39L31.08,45l-2.63.44Z" transform="translate(-3.33 -3.01)"/><path class="cls-18" d="M22.43,57.1l5.43.73,2.63.34,2.93.36c1,.12,2.07.22,3.14.31.53,0,1.07.07,1.6.09H39l.41,0,.4,0c1.07-.08,2.17-.18,3.23-.3l1.59-.18,1.55-.18,2.94-.36,2.63-.34,2.22-.3L55.62,57l.63-.1.46-.08.39-.06-.37.1c-.24.07-.6.17-1.06.27s-1,.24-1.67.38l-1,.21-1.15.22c-.8.15-1.68.31-2.61.46s-1.91.31-2.93.46-2.07.3-3.15.42-2.17.25-3.3.33l-.43,0-.41,0h-.87q-.85,0-1.67-.11c-1.09-.09-2.15-.24-3.18-.37s-2-.3-2.93-.45-1.8-.31-2.6-.46-1.54-.3-2.19-.43l-1.68-.36-1.07-.25Z" transform="translate(-3.33 -3.01)"/><path class="cls-18" d="M22.61,61.78,28,63l2.63.58c.93.2,1.92.4,2.93.6s2.07.37,3.14.52c.53.07,1.07.13,1.6.16h.78l.41,0,.4,0c1.07-.13,2.17-.31,3.23-.51l1.59-.3,1.55-.31,2.94-.61,2.63-.58L54.09,62c.66-.17,1.24-.3,1.71-.43l.63-.17.46-.13.39-.11-.37.17c-.24.11-.6.28-1.06.46s-1,.4-1.67.64l-1,.36L52,63.14c-.8.25-1.68.52-2.61.78s-1.91.53-2.93.77-2.07.5-3.15.71-2.17.42-3.3.56l-.43,0-.41,0H38.3c-.57,0-1.12-.1-1.67-.18-1.09-.16-2.15-.4-3.18-.63s-2-.5-2.93-.76-1.8-.52-2.6-.78-1.54-.5-2.19-.73-1.21-.43-1.68-.6S23.24,62,23,61.93Z" transform="translate(-3.33 -3.01)"/><path class="cls-18" d="M22.47,51.87h.39l1.1,0c.95,0,2.3-.05,3.93-.07l2.62,0h2.93l3.13,0,1.61,0H39l.81,0,3.23,0c1.07,0,2.12,0,3.13,0H49.1l2.63,0c1.63,0,3,0,3.93.07l1.49,0-1.49.09c-.95.05-2.3.13-3.92.2l-2.62.1-2.93.1-3.13.08-3.23.07H38.18l-1.61,0-3.13-.08-2.93-.09-2.62-.1c-1.62-.07-3-.14-3.92-.19l-1.1-.07Z" transform="translate(-3.33 -3.01)"/></svg>